<svg width="14" height="14" viewBox="0 0 14 14" fill="none" xmlns="http://www.w3.org/2000/svg">
<path d="M9.65665 8.33325C9.70998 7.89325 9.74998 7.45325 9.74998 6.99992C9.74998 6.54659 9.70998 6.10659 9.65665 5.66659H11.91C12.0166 6.09325 12.0833 6.53992 12.0833 6.99992C12.0833 7.45992 12.0166 7.90659 11.91 8.33325M8.47665 12.0399C8.87665 11.2999 9.18331 10.4999 9.39665 9.66659H11.3633C10.7174 10.7788 9.69272 11.6213 8.47665 12.0399ZM8.30998 8.33325H5.18998C5.12331 7.89325 5.08331 7.45325 5.08331 6.99992C5.08331 6.54659 5.12331 6.09992 5.18998 5.66659H8.30998C8.36998 6.09992 8.41665 6.54659 8.41665 6.99992C8.41665 7.45325 8.36998 7.89325 8.30998 8.33325ZM6.74998 12.3066C6.19665 11.5066 5.74998 10.6199 5.47665 9.66659H8.02331C7.74998 10.6199 7.30331 11.5066 6.74998 12.3066ZM4.08331 4.33325H2.13665C2.77588 3.21806 3.79984 2.37424 5.01665 1.95992C4.61665 2.69992 4.31665 3.49992 4.08331 4.33325ZM2.13665 9.66659H4.08331C4.31665 10.4999 4.61665 11.2999 5.01665 12.0399C3.8024 11.621 2.77988 10.7784 2.13665 9.66659ZM1.58998 8.33325C1.48331 7.90659 1.41665 7.45992 1.41665 6.99992C1.41665 6.53992 1.48331 6.09325 1.58998 5.66659H3.84331C3.78998 6.10659 3.74998 6.54659 3.74998 6.99992C3.74998 7.45325 3.78998 7.89325 3.84331 8.33325M6.74998 1.68659C7.30331 2.48659 7.74998 3.37992 8.02331 4.33325H5.47665C5.74998 3.37992 6.19665 2.48659 6.74998 1.68659ZM11.3633 4.33325H9.39665C9.18799 3.50756 8.87903 2.71052 8.47665 1.95992C9.70331 2.37992 10.7233 3.22659 11.3633 4.33325ZM6.74998 0.333252C3.06331 0.333252 0.083313 3.33325 0.083313 6.99992C0.083313 8.76803 0.785692 10.4637 2.03593 11.714C2.65499 12.333 3.38992 12.8241 4.19876 13.1591C5.00759 13.4941 5.8745 13.6666 6.74998 13.6666C8.51809 13.6666 10.2138 12.9642 11.464 11.714C12.7143 10.4637 13.4166 8.76803 13.4166 6.99992C13.4166 6.12444 13.2442 5.25753 12.9092 4.4487C12.5741 3.63986 12.0831 2.90493 11.464 2.28587C10.845 1.66682 10.11 1.17575 9.3012 0.840722C8.49237 0.50569 7.62546 0.333252 6.74998 0.333252Z" fill="white"/>
</svg>
