<svg width="17" height="15" viewBox="0 0 17 15" fill="none" xmlns="http://www.w3.org/2000/svg">
<path d="M8.57915 12.6854L8.49998 12.7646L8.4129 12.6854C4.65248 9.27333 2.16665 7.01708 2.16665 4.72917C2.16665 3.14583 3.35415 1.95833 4.93748 1.95833C6.15665 1.95833 7.34415 2.75 7.76373 3.82667H9.23623C9.65581 2.75 10.8433 1.95833 12.0625 1.95833C13.6458 1.95833 14.8333 3.14583 14.8333 4.72917C14.8333 7.01708 12.3475 9.27333 8.57915 12.6854ZM12.0625 0.375C10.685 0.375 9.3629 1.01625 8.49998 2.02167C7.63706 1.01625 6.31498 0.375 4.93748 0.375C2.49915 0.375 0.583313 2.28292 0.583313 4.72917C0.583313 7.71375 3.27498 10.16 7.35206 13.8571L8.49998 14.9021L9.6479 13.8571C13.725 10.16 16.4166 7.71375 16.4166 4.72917C16.4166 2.28292 14.5008 0.375 12.0625 0.375Z" fill="black"/>
</svg>
